<?xml version="1.0" standalone="no"?>
<!DOCTYPE svg PUBLIC "-//W3C//DTD SVG 1.0//EN" "http://www.w3.org/TR/2001/REC-SVG-20010904/DTD/svg10.dtd">
<svg xmlns="http://www.w3.org/2000/svg" xmlns:xlink="http://www.w3.org/1999/xlink" id="body_1" width="24" height="24">

<g transform="matrix(0.025000002 0 0 0.025000002 -0 24)">
    <path d="M480 -80C 425.33334 -80 373.6667 -90.5 325 -111.5C 292.55554 -125.5 250.05554 -154.16667 197.5 -197.5C 161.16667 -233.83334 132.5 -276.33334 111.5 -325C 97.5 -357.44446 87 -409.1111 80 -480C 80 -535.3334 90.5 -587.1667 111.5 -635.5C 125.5 -667.7222 154.16667 -710.05554 197.5 -762.5C 233.83334 -798.8334 276.33334 -827.5 325 -848.5C 357.44446 -862.5 409.1111 -873 480 -880C 535.3334 -880 587.1667 -869.5 635.5 -848.5C 667.7222 -834.5 710.05554 -805.8334 762.5 -762.5C 798.8334 -726.1667 827.5 -683.8334 848.5 -635.5C 862.5 -603.2778 873 -551.44446 880 -480C 880 -425.33334 869.5 -373.6667 848.5 -325C 834.5 -292.55554 805.8334 -250.05554 762.5 -197.5C 726.1667 -161.16667 683.8334 -132.5 635.5 -111.5C 603.2778 -97.5 551.44446 -87 480 -80zM480 -162C 497.33334 -186 512.3334 -211 525 -237C 533.44446 -254.33334 543.7778 -282 556 -320L556 -320L404 -320C 412 -290.6667 422.33334 -263 435 -237C 443.44446 -219.66667 458.44446 -194.66667 480 -162zM376 -178C 364 -200 353.5 -222.83334 344.5 -246.5C 338.5 -262.27777 331 -286.77777 322 -320L322 -320L204 -320C 223.33334 -286.6667 247.50002 -257.6667 276.5 -233C 295.83334 -216.55556 329 -198.22223 376 -178zM584 -178C 621.3334 -190 654.5 -208.33334 683.5 -233C 702.8334 -249.44444 727 -278.44446 756 -320L756 -320L638 -320C 632 -294.6667 624.5 -270.1667 615.5 -246.5C 609.5 -230.72221 599 -207.88889 584 -178zM170 -400L306 -400C 304 -413.33334 302.5 -426.5 301.5 -439.5C 300.83334 -448.1667 300.33334 -461.6667 300 -480C 300 -494 300.5 -507.5 301.5 -520.5C 302.1667 -529.1667 303.6667 -542.3334 306 -560L306 -560L170 -560C 166.66667 -546.6667 164.16667 -533.5 162.5 -520.5C 161.38889 -511.83334 160.55556 -498.33334 160 -480C 160 -466 160.83334 -452.5 162.5 -439.5C 163.61111 -430.83334 166.11111 -417.6667 170 -400zM386 -400L574 -400C 576 -413.33334 577.5 -426.5 578.5 -439.5C 579.1667 -448.1667 579.6667 -461.6667 580 -480C 580 -494 579.5 -507.5 578.5 -520.5C 577.8334 -529.1667 576.3334 -542.3334 574 -560L574 -560L386 -560C 384 -546.6667 382.5 -533.5 381.5 -520.5C 380.83334 -511.83334 380.33334 -498.33334 380 -480C 380 -466 380.5 -452.5 381.5 -439.5C 382.1667 -430.83334 383.6667 -417.6667 386 -400zM654 -400L790 -400C 793.3334 -413.33334 795.8334 -426.5 797.5 -439.5C 798.6111 -448.1667 799.44446 -461.6667 800 -480C 800.00006 -494 799.16675 -507.5 797.5 -520.5C 796.3889 -529.1667 793.8889 -542.3334 790 -560L790 -560L654 -560C 656 -546.6667 657.5 -533.5 658.5 -520.5C 659.1667 -511.83334 659.6667 -498.33334 660 -480C 660 -466 659.5 -452.5 658.5 -439.5C 657.8334 -430.83334 656.3334 -417.6667 654 -400zM638 -640L756 -640C 736.6667 -673.3334 712.5 -702.3334 683.5 -727C 664.1667 -743.44446 631 -761.7778 584 -782C 596 -760 606.5 -737.1667 615.5 -713.5C 621.5 -697.7222 629 -673.2222 638 -640zM404 -640L556 -640C 548 -669.3334 537.6667 -697 525 -723C 516.55554 -740.3334 501.55554 -765.3334 480 -798C 462.6667 -774 447.6667 -749 435 -723C 426.55554 -705.6667 416.22223 -678 404 -640zM204 -640L322 -640C 328 -665.3334 335.5 -689.8334 344.5 -713.5C 350.5 -729.2778 361 -752.1111 376 -782C 338.6667 -770 305.5 -751.6667 276.5 -727C 257.1667 -710.55554 233 -681.55554 204 -640z" stroke="none" fill="#FFFFFF" fill-rule="nonzero" />
</g>
</svg>